<?xml version="1.0" encoding="UTF-8"?>
<svg xmlns="http://www.w3.org/2000/svg" width="720" height="540" viewBox="0 0 720 540">
  <defs>
    <linearGradient id="bg" x1="0" y1="0" x2="1" y2="1">
      <stop offset="0%" stop-color="#0a0a0a"/>
      <stop offset="100%" stop-color="#171717"/>
    </linearGradient>
    <radialGradient id="glow" cx="70%" cy="30%" r="50%">
      <stop offset="0%" stop-color="#a78bfa" stop-opacity="0.25"/>
      <stop offset="100%" stop-color="#a78bfa" stop-opacity="0"/>
    </radialGradient>
  </defs>
  <rect width="720" height="540" rx="24" fill="url(#bg)"/>
  <rect width="720" height="540" rx="24" fill="url(#glow)"/>
  <rect x="1" y="1" width="718" height="538" rx="23" fill="none" stroke="#333" stroke-width="2"/>
  <!-- node graph -->
     <rect x="120" y="240" width="120" height="60" rx="10" fill="#1e1b4b" stroke="#a78bfa" stroke-width="2"/>
     <rect x="320" y="180" width="120" height="60" rx="10" fill="#1e1b4b" stroke="#a78bfa" stroke-width="2"/>
     <rect x="320" y="300" width="120" height="60" rx="10" fill="#1e1b4b" stroke="#a78bfa" stroke-width="2"/>
     <rect x="520" y="240" width="120" height="60" rx="10" fill="#1e1b4b" stroke="#a78bfa" stroke-width="2"/>
     <line x1="240" y1="270" x2="320" y2="210" stroke="#a78bfa" stroke-width="3"/>
     <line x1="240" y1="270" x2="320" y2="330" stroke="#a78bfa" stroke-width="3"/>
     <line x1="440" y1="210" x2="520" y2="260" stroke="#a78bfa" stroke-width="3"/>
     <line x1="440" y1="330" x2="520" y2="280" stroke="#a78bfa" stroke-width="3"/>
     <text x="145" y="275" fill="#e9d5ff" font-size="14">Trigger</text>
     <text x="350" y="215" fill="#e9d5ff" font-size="14">Filter</text>
     <text x="345" y="335" fill="#e9d5ff" font-size="14">Action</text>
     <text x="550" y="275" fill="#e9d5ff" font-size="14">Done</text>
  <text x="48" y="72" fill="#fafafa" font-family="IBM Plex Sans, Helvetica, Arial, sans-serif" font-size="36" font-weight="700">FlowForge</text>
  <text x="48" y="108" fill="#a78bfa" font-family="IBM Plex Sans, Helvetica, Arial, sans-serif" font-size="18">Workflow Automation</text>
</svg>
