<?xml version="1.0" encoding="UTF-8"?>
<svg xmlns="http://www.w3.org/2000/svg" width="720" height="540" viewBox="0 0 720 540">
  <defs>
    <linearGradient id="bg" x1="0" y1="0" x2="1" y2="1">
      <stop offset="0%" stop-color="#0a0a0a"/>
      <stop offset="100%" stop-color="#171717"/>
    </linearGradient>
    <radialGradient id="glow" cx="70%" cy="30%" r="50%">
      <stop offset="0%" stop-color="#34d399" stop-opacity="0.25"/>
      <stop offset="100%" stop-color="#34d399" stop-opacity="0"/>
    </radialGradient>
  </defs>
  <rect width="720" height="540" rx="24" fill="url(#bg)"/>
  <rect width="720" height="540" rx="24" fill="url(#glow)"/>
  <rect x="1" y="1" width="718" height="538" rx="23" fill="none" stroke="#333" stroke-width="2"/>
  <!-- ledger + shield -->
     <rect x="130" y="190" width="240" height="260" rx="10" fill="#064e3b" stroke="#34d399" stroke-width="2"/>
     <rect x="150" y="220" width="200" height="12" rx="2" fill="#34d399" opacity="0.7"/>
     <rect x="150" y="250" width="160" height="10" rx="2" fill="#115e59"/>
     <rect x="150" y="275" width="180" height="10" rx="2" fill="#115e59"/>
     <rect x="150" y="300" width="140" height="10" rx="2" fill="#115e59"/>
     <rect x="150" y="340" width="200" height="40" rx="6" fill="#022c22" stroke="#34d399"/>
     <text x="170" y="365" fill="#34d399" font-family="monospace" font-size="16">₹ 12,450.00</text>
     <path d="M480 220 L560 220 L580 260 L520 380 L460 260 Z" fill="#022c22" stroke="#34d399" stroke-width="3"/>
     <path d="M500 290 L520 315 L555 265" fill="none" stroke="#34d399" stroke-width="5" stroke-linecap="round"/>
  <text x="48" y="72" fill="#fafafa" font-family="IBM Plex Sans, Helvetica, Arial, sans-serif" font-size="36" font-weight="700">PayLedger</text>
  <text x="48" y="108" fill="#34d399" font-family="IBM Plex Sans, Helvetica, Arial, sans-serif" font-size="18">Payments · Fraud</text>
</svg>
