<?xml version="1.0" encoding="UTF-8"?>
<svg xmlns="http://www.w3.org/2000/svg" width="720" height="540" viewBox="0 0 720 540">
  <defs>
    <linearGradient id="bg" x1="0" y1="0" x2="1" y2="1">
      <stop offset="0%" stop-color="#0a0a0a"/>
      <stop offset="100%" stop-color="#171717"/>
    </linearGradient>
    <radialGradient id="glow" cx="70%" cy="30%" r="50%">
      <stop offset="0%" stop-color="#d4a017" stop-opacity="0.25"/>
      <stop offset="100%" stop-color="#d4a017" stop-opacity="0"/>
    </radialGradient>
  </defs>
  <rect width="720" height="540" rx="24" fill="url(#bg)"/>
  <rect width="720" height="540" rx="24" fill="url(#glow)"/>
  <rect x="1" y="1" width="718" height="538" rx="23" fill="none" stroke="#333" stroke-width="2"/>
  <!-- document + citation graph -->
     <rect x="140" y="180" width="200" height="280" rx="8" fill="#1c1917" stroke="#d4a017" stroke-width="2"/>
     <rect x="160" y="210" width="160" height="10" rx="2" fill="#d4a017" opacity="0.8"/>
     <rect x="160" y="235" width="140" height="8" rx="2" fill="#44403c"/>
     <rect x="160" y="255" width="150" height="8" rx="2" fill="#44403c"/>
     <rect x="160" y="275" width="120" height="8" rx="2" fill="#44403c"/>
     <circle cx="420" cy="240" r="16" fill="#d4a017"/>
     <circle cx="520" cy="280" r="14" fill="#a8a29e"/>
     <circle cx="460" cy="360" r="18" fill="#d4a017" opacity="0.7"/>
     <circle cx="560" cy="340" r="12" fill="#78716c"/>
     <line x1="436" y1="248" x2="506" y2="272" stroke="#d4a017" stroke-width="2"/>
     <line x1="430" y1="255" x2="450" y2="342" stroke="#d4a017" stroke-width="2" opacity="0.6"/>
     <line x1="476" y1="350" x2="548" y2="340" stroke="#a8a29e" stroke-width="2"/>
  <text x="48" y="72" fill="#fafafa" font-family="IBM Plex Sans, Helvetica, Arial, sans-serif" font-size="36" font-weight="700">ProofWeave</text>
  <text x="48" y="108" fill="#d4a017" font-family="IBM Plex Sans, Helvetica, Arial, sans-serif" font-size="18">Evidence · Diligence Engine</text>
</svg>
