<?xml version="1.0" encoding="UTF-8"?>
<svg xmlns="http://www.w3.org/2000/svg" width="720" height="540" viewBox="0 0 720 540">
  <defs>
    <linearGradient id="bg" x1="0" y1="0" x2="1" y2="1">
      <stop offset="0%" stop-color="#0a0a0a"/>
      <stop offset="100%" stop-color="#171717"/>
    </linearGradient>
    <radialGradient id="glow" cx="70%" cy="30%" r="50%">
      <stop offset="0%" stop-color="#f59e0b" stop-opacity="0.25"/>
      <stop offset="100%" stop-color="#f59e0b" stop-opacity="0"/>
    </radialGradient>
  </defs>
  <rect width="720" height="540" rx="24" fill="url(#bg)"/>
  <rect width="720" height="540" rx="24" fill="url(#glow)"/>
  <rect x="1" y="1" width="718" height="538" rx="23" fill="none" stroke="#333" stroke-width="2"/>
  <!-- order book bars -->
     <rect x="140" y="200" width="90" height="200" fill="#14532d" opacity="0.9"/>
     <rect x="140" y="280" width="90" height="120" fill="#22c55e"/>
     <rect x="250" y="230" width="90" height="170" fill="#14532d" opacity="0.9"/>
     <rect x="250" y="300" width="90" height="100" fill="#22c55e"/>
     <rect x="360" y="210" width="90" height="190" fill="#7f1d1d" opacity="0.9"/>
     <rect x="360" y="210" width="90" height="90" fill="#ef4444"/>
     <rect x="470" y="180" width="90" height="220" fill="#7f1d1d" opacity="0.9"/>
     <rect x="470" y="180" width="90" height="130" fill="#ef4444"/>
     <line x1="120" y1="300" x2="600" y2="300" stroke="#f59e0b" stroke-width="2" stroke-dasharray="6 4"/>
     <text x="150" y="430" fill="#86efac" font-size="14">BID</text>
     <text x="480" y="430" fill="#fca5a5" font-size="14">ASK</text>
  <text x="48" y="72" fill="#fafafa" font-family="IBM Plex Sans, Helvetica, Arial, sans-serif" font-size="36" font-weight="700">PulseTrade</text>
  <text x="48" y="108" fill="#f59e0b" font-family="IBM Plex Sans, Helvetica, Arial, sans-serif" font-size="18">Order Book · Matching</text>
</svg>
