<?xml version="1.0" encoding="UTF-8"?>
<svg xmlns="http://www.w3.org/2000/svg" width="720" height="540" viewBox="0 0 720 540">
  <defs>
    <linearGradient id="bg" x1="0" y1="0" x2="1" y2="1">
      <stop offset="0%" stop-color="#0a0a0a"/>
      <stop offset="100%" stop-color="#171717"/>
    </linearGradient>
    <radialGradient id="glow" cx="70%" cy="30%" r="50%">
      <stop offset="0%" stop-color="#38bdf8" stop-opacity="0.25"/>
      <stop offset="100%" stop-color="#38bdf8" stop-opacity="0"/>
    </radialGradient>
  </defs>
  <rect width="720" height="540" rx="24" fill="url(#bg)"/>
  <rect width="720" height="540" rx="24" fill="url(#glow)"/>
  <rect x="1" y="1" width="718" height="538" rx="23" fill="none" stroke="#333" stroke-width="2"/>
  <!-- map pin + route -->
     <circle cx="200" cy="220" r="14" fill="#38bdf8"/>
     <path d="M200 234 L200 280" stroke="#38bdf8" stroke-width="4"/>
     <circle cx="520" cy="360" r="14" fill="#f472b6"/>
     <path d="M200 280 C280 280, 320 200, 400 260 S480 360, 520 360" fill="none" stroke="#38bdf8" stroke-width="4" stroke-dasharray="10 8"/>
     <rect x="140" y="400" width="80" height="40" rx="8" fill="#0c4a6e" stroke="#38bdf8"/>
     <rect x="250" y="400" width="80" height="40" rx="8" fill="#0c4a6e" stroke="#38bdf8"/>
     <rect x="360" y="400" width="80" height="40" rx="8" fill="#0c4a6e" stroke="#38bdf8"/>
     <text x="155" y="425" fill="#e0f2fe" font-size="12">Driver</text>
     <text x="270" y="425" fill="#e0f2fe" font-size="12">Route</text>
     <text x="375" y="425" fill="#e0f2fe" font-size="12">ETA</text>
  <text x="48" y="72" fill="#fafafa" font-family="IBM Plex Sans, Helvetica, Arial, sans-serif" font-size="36" font-weight="700">RouteFleet</text>
  <text x="48" y="108" fill="#38bdf8" font-family="IBM Plex Sans, Helvetica, Arial, sans-serif" font-size="18">Realtime Dispatch</text>
</svg>
