<?xml version="1.0" encoding="UTF-8"?>
<svg xmlns="http://www.w3.org/2000/svg" width="720" height="540" viewBox="0 0 720 540">
  <defs>
    <linearGradient id="bg" x1="0" y1="0" x2="1" y2="1">
      <stop offset="0%" stop-color="#0a0a0a"/>
      <stop offset="100%" stop-color="#171717"/>
    </linearGradient>
    <radialGradient id="glow" cx="70%" cy="30%" r="50%">
      <stop offset="0%" stop-color="#5eead4" stop-opacity="0.25"/>
      <stop offset="100%" stop-color="#5eead4" stop-opacity="0"/>
    </radialGradient>
  </defs>
  <rect width="720" height="540" rx="24" fill="url(#bg)"/>
  <rect width="720" height="540" rx="24" fill="url(#glow)"/>
  <rect x="1" y="1" width="718" height="538" rx="23" fill="none" stroke="#333" stroke-width="2"/>
  <!-- radar / alert -->
     <circle cx="480" cy="300" r="90" fill="none" stroke="#5eead4" stroke-width="3" opacity="0.35"/>
     <circle cx="480" cy="300" r="55" fill="none" stroke="#5eead4" stroke-width="3" opacity="0.55"/>
     <circle cx="480" cy="300" r="22" fill="#5eead4" opacity="0.9"/>
     <path d="M480 210 L495 270 L480 255 L465 270 Z" fill="#5eead4"/>
     <rect x="120" y="420" width="220" height="14" rx="4" fill="#1f2937"/>
     <rect x="120" y="420" width="150" height="14" rx="4" fill="#5eead4" opacity="0.7"/>
     <rect x="120" y="450" width="180" height="10" rx="3" fill="#1f2937"/>
     <rect x="360" y="420" width="200" height="14" rx="4" fill="#1f2937"/>
     <rect x="360" y="420" width="80" height="14" rx="4" fill="#f87171" opacity="0.8"/>
  <text x="48" y="72" fill="#fafafa" font-family="IBM Plex Sans, Helvetica, Arial, sans-serif" font-size="36" font-weight="700">SentinelOps</text>
  <text x="48" y="108" fill="#5eead4" font-family="IBM Plex Sans, Helvetica, Arial, sans-serif" font-size="18">Agentic SRE · Incident Command</text>
</svg>
