<?xml version="1.0" encoding="UTF-8"?>
<svg xmlns="http://www.w3.org/2000/svg" width="720" height="540" viewBox="0 0 720 540">
  <defs>
    <linearGradient id="bg" x1="0" y1="0" x2="1" y2="1">
      <stop offset="0%" stop-color="#0a0a0a"/>
      <stop offset="100%" stop-color="#171717"/>
    </linearGradient>
    <radialGradient id="glow" cx="70%" cy="30%" r="50%">
      <stop offset="0%" stop-color="#22c55e" stop-opacity="0.25"/>
      <stop offset="100%" stop-color="#22c55e" stop-opacity="0"/>
    </radialGradient>
  </defs>
  <rect width="720" height="540" rx="24" fill="url(#bg)"/>
  <rect width="720" height="540" rx="24" fill="url(#glow)"/>
  <rect x="1" y="1" width="718" height="538" rx="23" fill="none" stroke="#333" stroke-width="2"/>
  <!-- server + arrow + chart -->
     <rect x="100" y="200" width="160" height="200" rx="12" fill="#052e16" stroke="#22c55e" stroke-width="2"/>
     <circle cx="140" cy="240" r="8" fill="#22c55e"/>
     <circle cx="180" cy="240" r="8" fill="#86efac"/>
     <rect x="120" y="280" width="120" height="8" rx="2" fill="#166534"/>
     <rect x="120" y="300" width="100" height="8" rx="2" fill="#166534"/>
     <rect x="120" y="320" width="110" height="8" rx="2" fill="#166534"/>
     <path d="M280 300 L360 300" stroke="#22c55e" stroke-width="4" marker-end="url(#arrow)"/>
     <polygon points="350,290 380,300 350,310" fill="#22c55e"/>
     <polyline points="420,360 460,300 500,320 540,240 580,260" fill="none" stroke="#22c55e" stroke-width="4" stroke-linecap="round"/>
     <rect x="400" y="200" width="220" height="200" rx="12" fill="#0a0a0a" stroke="#333" stroke-width="2"/>
     <text x="420" y="230" fill="#888" font-family="monospace" font-size="14">OMS / CMS</text>
  <text x="48" y="72" fill="#fafafa" font-family="IBM Plex Sans, Helvetica, Arial, sans-serif" font-size="36" font-weight="700">Trading Engine Bridge</text>
  <text x="48" y="108" fill="#22c55e" font-family="IBM Plex Sans, Helvetica, Arial, sans-serif" font-size="18">Webhook → OMS Execution</text>
</svg>
